<svg xmlns="http://www.w3.org/2000/svg" viewBox="0 0 642 204"><g id="Page-1" fill="none" fill-rule="evenodd"><g id="exsoc" fill-rule="nonzero"><g id="Group"><g id="Polygon" fill="#F2994A" transform="translate(285)"><g id="path0_fill-link"><path id="path0_fill" d="M20.92 2.55a5 5 0 0 1 8.7-.04l20.95 36.48c2.87 5-3.61 10.09-7.79 6.1L28.72 31.7a5 5 0 0 0-6.94.05L8.54 44.66C4.4 48.69-2.14 43.67.69 38.63L20.92 2.55z"/></g></g><g id="EXPLORERS" fill="#000000" transform="translate(0 61)"><g id="path1_fill-link" transform="translate(.4 1.48)"><path id="path1_fill" d="M0 75.27c0 .67.45 1.12 1.12 1.12h47.71c.67 0 1.12-.45 1.12-1.12v-9.63c0-.67-.45-1.12-1.12-1.12H13.9c-.45 0-.67-.22-.67-.67V44.58c0-.44.22-.67.67-.67h29.45c.68 0 1.12-.45 1.12-1.12v-9.63c0-.67-.44-1.12-1.12-1.12H13.9c-.45 0-.67-.22-.67-.67v-18.6c0-.44.22-.67.67-.67h34.94c.67 0 1.12-.44 1.12-1.12V1.35c0-.67-.45-1.12-1.12-1.12H1.12C.45.23 0 .68 0 1.35v73.92z"/></g><g id="path2_fill-link" transform="translate(65.4 1.48)"><path id="path2_fill" d="M59.8 76.4c.79 0 1.12-.68.68-1.46L37.73 36.97 58.79 1.69c.45-.79.12-1.46-.67-1.46h-12.1c-.89 0-1.34.34-1.79 1.12L30.46 24.42h-.23L16.46 1.35C16 .57 15.56.23 14.66.23H2.58C1.8.23 1.45.9 1.9 1.7l21.05 35.28L.22 74.94c-.45.78-.11 1.45.67 1.45H13c.9 0 1.34-.33 1.79-1.12L30.24 49.4h.22L45.8 75.27c.45.79.9 1.12 1.8 1.12h12.2z"/></g><g id="path3_fill-link" transform="translate(143.4 1.48)"><path id="path3_fill" d="M12.74 76.4c.68 0 1.13-.46 1.13-1.13V48.28c0-.45.22-.67.67-.67h15.79c14.78 0 25.09-9.52 25.09-23.75 0-14.1-10.3-23.63-25.1-23.63H1.78C1.1.23.65.68.65 1.35v73.92c0 .67.45 1.12 1.12 1.12h10.97zm16.8-40.78h-15c-.45 0-.67-.22-.67-.67V12.78c0-.45.22-.68.67-.68h15c7.84 0 12.66 4.82 12.66 11.76 0 7.06-4.82 11.76-12.66 11.76z"/></g><g id="path4_fill-link" transform="translate(218.4 1.48)"><path id="path4_fill" d="M.43 75.27c0 .67.44 1.12 1.12 1.12h47.7c.68 0 1.13-.45 1.13-1.12v-9.63c0-.67-.45-1.12-1.12-1.12H14.3c-.44 0-.67-.22-.67-.67V1.35c0-.67-.45-1.12-1.12-1.12H1.55C.87.23.43.68.43 1.35v73.92z"/></g><g id="path5_fill-link" transform="translate(282.4 .48)"><path id="path5_fill" d="M29.22 78.62c13.22 0 23.07-6.27 27-18.36 1.56-4.7 2-8.96 2-20.95 0-11.98-.44-16.24-2-20.94C52.28 6.27 42.43 0 29.21 0 16.12 0 6.26 6.27 2.34 18.37.77 23.07.32 27.33.32 39.3c0 11.99.45 16.24 2.02 20.95 3.92 12.1 13.77 18.36 26.88 18.36zm0-11.87c-7.5 0-11.98-3.8-14.11-9.97-.9-2.8-1.35-6.72-1.35-17.47 0-10.86.45-14.67 1.35-17.47 2.13-6.16 6.6-9.97 14.1-9.97 7.63 0 12.1 3.81 14.23 9.97.9 2.8 1.35 6.6 1.35 17.47 0 10.75-.45 14.67-1.35 17.47-2.13 6.16-6.6 9.97-14.22 9.97z"/></g><g id="path6_fill-link" transform="translate(362.4 1.48)"><path id="path6_fill" d="M56.29 76.4c.78 0 1.23-.68.78-1.46L41.05 43.9C49.8 40.66 55.5 32.94 55.5 22.97 55.5 9.53 45.2.23 31.2.23H1.74C1.07.23.62.68.62 1.35v73.92c0 .67.45 1.12 1.12 1.12h10.98c.67 0 1.12-.45 1.12-1.12v-29c0-.45.22-.68.67-.68h13.1l14.56 29.68c.34.79.79 1.12 1.68 1.12H56.3zM30.75 33.71H14.51c-.45 0-.67-.22-.67-.67V12.78c0-.45.22-.68.67-.68h16.24c6.94 0 11.65 4.26 11.65 10.87 0 6.5-4.7 10.75-11.65 10.75z"/></g><g id="path7_fill-link" transform="translate(439.4 1.48)"><path id="path7_fill" d="M.8 75.27c0 .67.45 1.12 1.13 1.12h47.7c.68 0 1.13-.45 1.13-1.12v-9.63c0-.67-.45-1.12-1.12-1.12H14.69c-.44 0-.67-.22-.67-.67V44.58c0-.44.23-.67.67-.67h29.46c.67 0 1.12-.45 1.12-1.12v-9.63c0-.67-.45-1.12-1.12-1.12H14.69c-.44 0-.67-.22-.67-.67v-18.6c0-.44.23-.67.67-.67h34.95c.67 0 1.12-.44 1.12-1.12V1.35c0-.67-.45-1.12-1.12-1.12H1.93C1.25.23.8.68.8 1.35v73.92z"/></g><g id="path8_fill-link" transform="translate(511.4 1.48)"><path id="path8_fill" d="M56.19 76.4c.78 0 1.23-.68.78-1.46L40.95 43.9C49.7 40.66 55.4 32.94 55.4 22.97 55.4 9.53 45.1.23 31.1.23H1.64C.97.23.52.68.52 1.35v73.92c0 .67.45 1.12 1.12 1.12h10.98c.67 0 1.12-.45 1.12-1.12v-29c0-.45.22-.68.67-.68h13.1l14.56 29.68c.34.79.79 1.12 1.68 1.12H56.2zM30.65 33.71H14.4c-.45 0-.67-.22-.67-.67V12.78c0-.45.22-.68.67-.68h16.24c6.94 0 11.65 4.26 11.65 10.87 0 6.5-4.7 10.75-11.65 10.75z"/></g><g id="path9_fill-link" transform="translate(584.4 .48)"><path id="path9_fill" d="M28.67 78.62c18.93 0 28.67-10.08 28.67-23.63 0-13.1-8.06-20.05-22.73-22.06l-4.03-.56c-10.3-1.46-14-5.04-14-10.3 0-5.94 4.25-10.2 11.98-10.2 6.38 0 12.1 1.9 18.26 5.94.56.33 1.12.22 1.56-.34l5.38-8.29c.45-.67.34-1.12-.22-1.56C47.49 3.02 38.42 0 28.9 0 13.22 0 3.14 9.18 3.14 22.96c0 12.66 8.28 19.71 22.96 21.73l4.03.56c10.53 1.45 13.89 5.04 13.89 10.53 0 6.38-5.27 10.97-14.34 10.97-8.51 0-15.8-4.14-20.72-8.06-.45-.45-1.12-.45-1.57.11L.45 66.86c-.45.56-.23 1.24.22 1.68 5.94 5.6 16.8 10.08 28 10.08z"/></g></g></g><g id="SOCIETY" fill="#000000" transform="translate(133 173)"><g id="path10_fill-link" transform="translate(.18 .85)"><path id="path10_fill" d="M11.17 29.48c7.4 0 11.21-3.82 11.21-8.98 0-5.17-3.1-7.86-8.98-8.66l-1.52-.2c-3.27-.47-4.45-1.52-4.45-3.16 0-1.8 1.3-3.1 3.82-3.1 2.36 0 4.46.75 6.64 2.18.21.13.42.08.59-.13l2.56-3.82c.21-.3.17-.46-.08-.63C18.56 1.13 15.03 0 11.26 0 5.07 0 1.12 3.49 1.12 8.74c0 5.04 3.24 7.77 9.03 8.56l1.51.21c3.4.47 4.41 1.52 4.41 3.2 0 2.01-1.68 3.4-4.66 3.4-3.02 0-5.58-1.43-7.47-2.94-.21-.17-.47-.17-.63.04l-3.2 3.65c-.2.26-.12.55.05.72 2.22 2.14 6.55 3.9 11 3.9z"/></g><g id="path11_fill-link" transform="translate(57.18 .85)"><path id="path11_fill" d="M11.9 29.48c5 0 8.96-2.3 10.43-6.93.63-1.97.8-3.57.8-7.8 0-4.25-.17-5.85-.8-7.82C20.86 2.31 16.9 0 11.9 0S2.96 2.31 1.49 6.93C.86 8.9.7 10.5.7 14.74s.17 5.84.8 7.81c1.47 4.62 5.42 6.93 10.42 6.93zm0-5.46c-2.34 0-3.85-1.17-4.48-3.15-.34-1-.47-2.39-.47-6.13 0-3.74.13-5.12.47-6.13.63-1.97 2.14-3.15 4.49-3.15s3.86 1.18 4.5 3.15c.33 1 .46 2.4.46 6.13 0 3.74-.13 5.13-.47 6.13-.63 1.98-2.14 3.15-4.5 3.15z"/></g><g id="path12_fill-link" transform="translate(115.18 .85)"><path id="path12_fill" d="M1.79 22.47c1.5 4.66 5.16 7.01 10.16 7.01 4.83 0 8.36-2.35 9.95-6.34.13-.2.05-.42-.2-.5l-4.58-2.06c-.26-.13-.47-.04-.6.21-.79 1.85-2.13 3.23-4.53 3.23a4.2 4.2 0 0 1-4.28-3.15c-.34-1.05-.46-2.05-.46-6.13 0-4.07.12-5.08.46-6.13a4.2 4.2 0 0 1 4.28-3.15c2.4 0 3.74 1.39 4.54 3.23.12.26.33.34.59.21l4.57-2.05c.26-.09.34-.3.21-.5-1.6-4-5.12-6.35-9.95-6.35-5 0-8.65 2.35-10.16 7.01-.63 1.85-.8 3.32-.8 7.73s.17 5.88.8 7.73z"/></g><g id="path13_fill-link" transform="translate(172.18 .85)"><path id="path13_fill" d="M.82 28.6c0 .25.17.42.42.42h5.34c.25 0 .42-.17.42-.42V.88c0-.25-.17-.42-.42-.42H1.24C1 .46.82.63.82.88V28.6z"/></g><g id="path14_fill-link" transform="translate(216.18 .85)"><path id="path14_fill" d="M.4 28.6c0 .25.16.42.41.42h18.31c.25 0 .42-.17.42-.42v-4.5c0-.24-.16-.41-.42-.41H6.82c-.17 0-.25-.09-.25-.25V17.5c0-.16.08-.25.25-.25h10.25c.25 0 .41-.17.41-.42V12.4c0-.25-.16-.42-.41-.42H6.82c-.17 0-.25-.08-.25-.25V6.05c0-.17.08-.25.25-.25h12.3c.25 0 .42-.17.42-.42V.88c0-.25-.16-.42-.42-.42H.82C.55.46.38.63.38.88V28.6z"/></g><g id="path15_fill-link" transform="translate(270.18 .85)"><path id="path15_fill" d="M13.7 29.02c.25 0 .41-.17.41-.42V6.22c0-.17.09-.26.26-.26h7.22c.25 0 .42-.16.42-.42V.88c0-.25-.17-.42-.42-.42H.46C.21.46.04.63.04.88v4.66c0 .26.17.42.42.42H7.7c.17 0 .25.09.25.26V28.6c0 .25.17.42.42.42h5.33z"/></g><g id="path16_fill-link" transform="translate(324.18 .85)"><path id="path16_fill" d="M15.2 29.02c.25 0 .42-.17.42-.42V17.64L24.06.88c.13-.2 0-.42-.29-.42h-5.3c-.29 0-.5.13-.62.42L12.68 11.3h-.12L7.39.88a.63.63 0 0 0-.63-.42H1.3C1 .46.92.67 1 .88l8.45 16.76V28.6c0 .25.17.42.42.42h5.33z"/></g></g></g></g></svg>